HIERARCHY
ROOT Hips
{
	OFFSET 0.000000 0.000000 0.000000 
	CHANNELS 6 Xposition Yposition Zposition Zrotation Yrotation Xrotation
	JOINT LeftUpLeg
	{
		OFFSET 1.363060 -1.794630 0.839290 
		CHANNELS 3 Zrotation Yrotation Xrotation
		JOINT LeftLeg
		{
			OFFSET 2.448110 -6.726130 0.000000 
			CHANNELS 3 Zrotation Yrotation Xrotation
			JOINT LeftFoot
			{
				OFFSET 2.562200 -7.039590 0.000000 
				CHANNELS 3 Zrotation Yrotation Xrotation
				JOINT LeftToeBase
				{
					OFFSET 0.157640 -0.433110 2.322550 
					CHANNELS 3 Zrotation Yrotation Xrotation
					End Site
					{
						OFFSET 0.000000 0.000000 0.000000 
					}
				}
			}
		}
	}
	JOINT RightUpLeg
	{
		OFFSET -1.305520 -1.794630 0.839290 
		CHANNELS 3 Zrotation Yrotation Xrotation
		JOINT RightLeg
		{
			OFFSET -2.542530 -6.985550 0.000000 
			CHANNELS 3 Zrotation Yrotation Xrotation
			JOINT RightFoot
			{
				OFFSET -2.568260 -7.056230 0.000000 
				CHANNELS 3 Zrotation Yrotation Xrotation
				JOINT RightToeBase
				{
					OFFSET -0.164730 -0.452590 2.363150 
					CHANNELS 3 Zrotation Yrotation Xrotation
					End Site
					{
						OFFSET 0.000000 0.000000 0.000000 
					}
				}
			}
		}
	}
	JOINT Spine
	{
		OFFSET 0.028270 2.035590 -0.193380 
		CHANNELS 3 Zrotation Yrotation Xrotation
		JOINT Spine1
		{
			OFFSET 0.056720 2.048850 -0.042750 
			CHANNELS 3 Zrotation Yrotation Xrotation
			JOINT Neck1
			{
				OFFSET -0.054170 1.746240 0.172020 
				CHANNELS 3 Zrotation Yrotation Xrotation
				JOINT Head
				{
					OFFSET 0.104070 1.761360 -0.123970 
					CHANNELS 3 Zrotation Yrotation Xrotation
					End Site
					{
						OFFSET 0.000000 0.000000 0.000000 
					}
				}
			}
			JOINT LeftArm
			{
				OFFSET 3.362410 1.200890 -0.311210 
				CHANNELS 3 Zrotation Yrotation Xrotation
				JOINT LeftForeArm
				{
					OFFSET 4.983000 -0.000000 -0.000000 
					CHANNELS 3 Zrotation Yrotation Xrotation
					JOINT LeftHand
					{
						OFFSET 3.483560 -0.000000 -0.000000 
						CHANNELS 3 Zrotation Yrotation Xrotation
						JOINT LeftHandIndex1
						{
							OFFSET 0.715260 -0.000000 -0.000000 
							CHANNELS 3 Zrotation Yrotation Xrotation
							End Site
							{
								OFFSET 0.000000 0.000000 0.000000 
							}
						}
					}
				}
			}
			JOINT RightArm
			{
				OFFSET -3.136600 1.374050 -0.404650 
				CHANNELS 3 Zrotation Yrotation Xrotation
				JOINT RightForeArm
				{
					OFFSET -5.241900 -0.000000 -0.000000 
					CHANNELS 3 Zrotation Yrotation Xrotation
					JOINT RightHand
					{
						OFFSET -3.444170 -0.000000 -0.000000 
						CHANNELS 3 Zrotation Yrotation Xrotation
						JOINT RightHandIndex1
						{
							OFFSET -0.622530 -0.000000 -0.000000 
							CHANNELS 3 Zrotation Yrotation Xrotation
							End Site
							{
								OFFSET 0.000000 0.000000 0.000000 
							}
						}
					}
				}
			}
		}
	}
}
MOTION
Frames: 18
Frame Time: 0.041667
-29.242200 17.010500 0.735200 32.881100 87.103900 28.113400 -13.947300 4.911300 11.644300 0.057300 1.545100 4.250000 0.316600 9.758800 -18.265400 0.634700 -5.097200 -14.186000 14.300400 -9.072500 9.495300 -0.160400 -2.580300 7.112300 -1.114600 1.216600 -19.590800 -0.059500 -1.573300 4.327800 -0.305100 2.699500 0.045200 1.277500 1.430900 -5.665000 -1.629200 0.606400 19.809900 -1.102000 0.415000 9.596700 -86.921600 4.232600 36.667000 13.804400 -22.454300 -2.752900 0.000000 0.000000 11.682100 -7.125000 0.000000 0.000000 0.000000 0.000000 0.000000 0.000000 0.000000 0.000000 0.000000 0.000000 0.000000 0.000000 0.000000 0.000000 
-29.256100 17.011700 0.732100 28.566900 86.569700 23.777800 -14.000900 5.317500 11.564900 0.058700 1.563100 4.299800 0.329600 9.784400 -18.444100 0.607200 -4.987600 -13.873200 14.214500 -8.852100 9.208500 -0.177700 -2.715500 7.487600 -1.122400 1.655700 -19.544300 -0.069100 -1.695700 4.665400 -0.328800 2.936700 0.016200 1.220800 1.549600 -5.803200 -1.580100 0.606900 19.777000 -1.074600 0.416100 9.577700 -86.894000 4.083600 36.919300 13.616000 -22.183100 -2.681400 0.000000 0.000000 11.485200 -7.125000 0.000000 0.000000 88.154700 -5.342600 38.229200 -16.589700 26.313700 -3.903700 0.000000 0.000000 2.182100 7.125000 0.000000 0.000000 
-29.248500 17.008800 0.738100 30.148200 86.887600 25.412900 -13.757300 5.407500 11.350400 0.063400 1.624800 4.469900 0.361500 9.268100 -18.268100 0.592500 -4.928100 -13.703600 14.392700 -8.845200 9.383900 -0.166700 -2.630300 7.251000 -1.137900 1.312400 -19.772400 -0.078900 -1.811600 4.985300 -0.236000 2.765500 0.028200 1.370700 1.466300 -5.702100 -1.509200 0.670900 19.813000 -1.014200 0.441900 9.597600 -87.040500 4.029600 36.817200 13.535400 -22.066600 -2.651000 0.000000 0.000000 11.508900 -7.125000 0.000000 0.000000 88.024000 -5.282900 38.274500 -16.516400 26.215900 -3.871300 0.000000 0.000000 2.238200 7.125000 0.000000 0.000000 
-29.254000 17.009900 0.733200 25.771500 86.570000 20.973400 -13.695800 5.560500 11.488300 0.060200 1.583500 4.356000 0.355400 9.503500 -18.442900 0.580700 -4.879600 -13.565600 14.478300 -8.663100 9.291600 -0.176200 -2.703900 7.455400 -1.122100 1.448000 -19.594800 -0.058900 -1.565800 4.307000 -0.200800 2.926100 0.018000 1.310900 1.543500 -5.799000 -1.542500 0.705500 19.872000 -1.018500 0.453400 9.625100 -87.103600 4.059800 36.728000 13.559400 -22.101300 -2.660100 0.000000 0.000000 11.536300 -7.125000 0.000000 0.000000 87.991200 -5.256100 38.276900 -16.495300 26.187600 -3.861900 0.000000 0.000000 2.286200 7.125000 0.000000 0.000000 
-29.246200 17.002200 0.738400 27.543700 86.953100 22.947000 -13.619200 5.243400 11.310100 0.061000 1.593000 4.382100 0.338700 9.529900 -18.278300 0.649900 -5.156900 -14.356600 14.602100 -8.793200 9.248400 -0.166700 -2.630200 7.250900 -1.106400 1.126400 -19.541700 -0.035900 -1.223600 3.364100 -0.244400 2.751400 0.000400 1.241200 1.452000 -5.625500 -1.562600 0.685200 19.946200 -1.041200 0.448100 9.665100 -86.993200 4.011600 36.783000 13.563700 -22.107600 -2.661700 0.000000 0.000000 11.470500 -7.125000 0.000000 0.000000 88.114300 -5.248000 38.203000 -16.486100 26.175400 -3.857900 0.000000 0.000000 2.361300 7.125000 0.000000 0.000000 
-29.241700 17.009900 0.742200 30.080500 87.125300 25.267300 -13.745500 4.963900 11.723900 0.056900 1.539500 4.234500 0.316200 9.723500 -18.221900 0.625000 -5.058800 -14.076500 14.513300 -8.991500 9.599300 -0.159000 -2.569300 7.081800 -1.103500 1.014800 -19.547600 -0.036700 -1.236500 3.399700 -0.235900 2.667900 0.033100 1.296300 1.414200 -5.729000 -1.491100 0.684100 19.916600 -1.005600 0.450900 9.647900 -87.031900 4.020600 36.671400 13.510700 -22.030900 -2.641800 0.000000 0.000000 11.601600 -7.125000 0.000000 0.000000 88.088000 -5.375700 38.224700 -16.476300 26.162200 -3.853600 0.000000 0.000000 2.651100 7.125000 0.000000 0.000000 
-29.238900 17.011300 0.744100 32.969600 87.262400 28.155600 -13.826700 4.825800 11.764100 0.056300 1.531200 4.211900 0.321000 9.655400 -18.204700 0.628600 -5.073200 -14.117600 14.415900 -9.159100 9.645200 -0.155100 -2.537900 6.994800 -1.094100 0.989100 -19.469900 -0.052000 -1.472000 4.048500 -0.256600 2.576300 0.037700 1.322300 1.370500 -5.715500 -1.401500 0.685500 19.767800 -0.970800 0.458900 9.582600 -87.066300 4.027500 36.474200 13.489600 -22.000400 -2.633900 0.000000 0.000000 11.769900 -7.125000 0.000000 0.000000 88.146700 -5.610200 37.999100 -16.544100 26.252900 -3.883500 0.000000 0.000000 3.545700 7.125000 0.000000 0.000000 
-29.247000 17.016100 0.748900 19.736400 87.390400 15.027900 -12.961700 4.958500 11.558800 0.057900 1.552200 4.269600 0.334300 9.545600 -18.243000 0.621000 -5.043200 -14.031900 15.289400 -8.946700 9.449500 -0.159800 -2.575500 7.099000 -1.100200 0.922800 -19.544700 -0.056300 -1.530500 4.209800 -0.092600 2.635100 -0.033200 1.151300 1.385500 -5.792000 -1.453000 0.692700 19.817800 -0.996800 0.461200 9.600600 -87.097800 4.078600 36.329600 13.495100 -22.008300 -2.635900 0.000000 0.000000 11.821500 -7.125000 0.000000 0.000000 88.187900 -5.671600 37.897000 -16.505300 26.200900 -3.866400 0.000000 0.000000 3.979100 7.125000 0.000000 0.000000 
-29.259800 17.019700 0.757600 -6.274300 87.380600 -10.723300 -11.370700 4.975900 11.161500 0.062000 1.606700 4.419800 0.346000 9.406100 -18.232700 0.623400 -5.052700 -14.058900 17.043300 -8.364300 9.162200 -0.164400 -2.612300 7.201000 -1.125100 0.487600 -19.901200 -0.054600 -1.508500 4.149100 0.237700 2.690200 -0.129800 0.862100 1.385000 -5.806900 -1.545300 0.721700 19.928800 -1.031100 0.467700 9.653100 -87.143200 4.020000 36.202100 13.438400 -21.926200 -2.614700 0.000000 0.000000 11.844600 -7.125000 0.000000 0.000000 88.169100 -5.616400 37.942500 -16.490600 26.181300 -3.859900 0.000000 0.000000 3.949500 7.125000 0.000000 0.000000 
-29.271200 17.024500 0.756800 -16.251100 87.042300 -20.662400 -10.602100 5.186000 10.952400 0.066900 1.668900 4.591500 0.355200 9.289600 -18.217200 0.588800 -4.913000 -13.660500 17.790900 -8.124400 8.979500 -0.173200 -2.680600 7.390600 -1.121900 0.442500 -19.886800 -0.044500 -1.361800 3.745000 0.372600 2.811200 -0.152900 0.653100 1.429600 -5.867500 -1.609500 0.722100 19.885700 -1.063100 0.464100 9.637800 -87.118700 3.951900 36.257600 13.400400 -21.871000 -2.600500 0.000000 0.000000 11.755500 -7.125000 0.000000 0.000000 88.176300 -5.590700 37.996900 -16.514600 26.213400 -3.870500 0.000000 0.000000 3.811600 7.125000 0.000000 0.000000 
-29.271100 17.019100 0.755400 -16.634400 87.053300 -20.893800 -10.445100 5.477200 10.528200 0.073900 1.753800 4.825800 0.365000 8.987600 -18.020600 0.586500 -4.903300 -13.632900 17.798900 -8.146600 8.778800 -0.174700 -2.692100 7.422600 -1.108800 0.500600 -19.750200 -0.045600 -1.378500 3.790800 0.351700 2.822900 -0.196100 0.608600 1.433600 -5.823700 -1.603900 0.721400 19.826000 -1.067200 0.466400 9.614800 -87.055100 3.990100 36.374800 13.437900 -21.925500 -2.614600 0.000000 0.000000 11.625600 -7.125000 0.000000 0.000000 88.222900 -5.606800 37.932300 -16.516000 26.215300 -3.871100 0.000000 0.000000 3.751000 7.125000 0.000000 0.000000 
-29.270400 17.021700 0.755800 -17.117000 86.945800 -21.496900 -10.269900 5.753700 10.583900 0.074900 1.765900 4.859100 0.368500 8.832600 -17.903200 0.606900 -4.986400 -13.869800 17.877400 -8.116500 8.931800 -0.173500 -2.683500 7.398900 -1.102300 0.531300 -19.681400 -0.059400 -1.572600 4.325900 0.375300 2.861700 -0.150300 0.589000 1.451300 -5.841400 -1.549700 0.746100 19.818600 -1.037400 0.480100 9.625100 -87.099700 3.987900 36.188500 13.463400 -21.962400 -2.624100 0.000000 0.000000 11.772500 -7.125000 0.000000 0.000000 88.206800 -5.566700 37.845200 -16.478100 26.164600 -3.854400 0.000000 0.000000 3.906400 7.125000 0.000000 0.000000 
-29.271800 17.023000 0.757300 -20.339600 87.026200 -24.813900 -10.167900 5.526400 10.792900 0.072000 1.730800 4.762300 0.352100 8.956300 -17.835800 0.632500 -5.088500 -14.161100 18.024300 -8.221900 9.054000 -0.170500 -2.660000 7.333600 -1.112800 0.468000 -19.796300 -0.061800 -1.604000 4.412400 0.414600 2.814400 -0.136600 0.551600 1.424500 -5.898000 -1.507700 0.739900 19.792400 -1.017100 0.479000 9.610900 -87.120900 3.892900 36.234900 13.372500 -21.830600 -2.590200 0.000000 0.000000 11.752500 -7.125000 0.000000 0.000000 88.170600 -5.465600 37.842600 -16.405900 26.067900 -3.822600 0.000000 0.000000 3.923600 7.125000 0.000000 0.000000 
-29.270600 17.024300 0.761600 -22.983700 87.099300 -27.513000 -10.064500 5.387500 10.929300 0.069600 1.702100 4.683000 0.334300 9.094600 -17.767600 0.640800 -5.121400 -14.255100 18.114400 -8.379000 9.128800 -0.167700 -2.638300 7.273200 -1.120700 0.455400 -19.871600 -0.067200 -1.672000 4.600000 0.446400 2.784000 -0.154400 0.549500 1.408100 -5.955300 -1.544000 0.724400 19.677900 -1.035500 0.469200 9.532800 -87.118600 3.927400 36.299000 13.347200 -21.793800 -2.580700 0.000000 0.000000 11.743400 -7.125000 0.000000 0.000000 88.170800 -5.209900 37.953500 -16.270200 25.885700 -3.763200 0.000000 0.000000 3.598100 7.125000 0.000000 0.000000 
-29.270900 17.022200 0.757500 -23.330900 86.939600 -27.768900 -10.023400 5.338600 10.857200 0.069500 1.700700 4.679100 0.333600 9.263800 -17.936100 0.602100 -4.967100 -13.814800 18.168500 -8.367800 8.923800 -0.173800 -2.685800 7.405200 -1.131100 0.708400 -19.885800 -0.096800 -2.006800 5.524600 0.482100 2.840100 -0.195300 0.519800 1.432900 -5.951200 -1.678900 0.748600 19.618800 -1.088000 0.468900 9.491800 -87.206200 3.975400 36.092400 13.351800 -21.800500 -2.582500 0.000000 0.000000 11.943300 -7.125000 0.000000 0.000000 88.151200 -5.566900 37.846700 -16.483800 26.172300 -3.856900 0.000000 0.000000 3.550200 7.125000 0.000000 0.000000 
-29.271500 17.024600 0.756400 -23.141000 86.813500 -27.584100 -9.990200 5.378200 10.870300 0.069800 1.704400 4.689300 0.342300 9.263200 -18.039000 0.599200 -4.955300 -13.781000 18.203900 -8.353900 8.889600 -0.176000 -2.702700 7.452000 -1.124400 0.842700 -19.785500 -0.095100 -1.988900 5.475000 0.494900 2.870900 -0.190200 0.496800 1.446600 -5.952400 -1.679900 0.777900 19.710200 -1.085500 0.483300 9.545300 -87.221200 4.005600 35.972100 13.377000 -21.837100 -2.591900 0.000000 0.000000 11.965700 -7.125000 0.000000 0.000000 88.161900 -5.577800 37.817300 -16.466400 26.148900 -3.849200 0.000000 0.000000 3.575400 7.125000 0.000000 0.000000 
-29.273200 17.022500 0.756700 -21.696700 86.846200 -26.032900 -10.108900 5.387300 10.759000 0.069200 1.696800 4.668400 0.337000 9.268500 -17.981400 0.640700 -5.120800 -14.253400 18.092300 -8.387400 8.763200 -0.175100 -2.695200 7.431400 -1.091800 0.774700 -19.511900 -0.058800 -1.564500 4.303500 0.476900 2.855100 -0.209200 0.542800 1.441700 -5.914900 -1.629200 0.800800 19.743700 -1.059200 0.497200 9.569800 -87.212500 3.982300 35.993400 13.354500 -21.804500 -2.583500 0.000000 0.000000 11.858700 -7.125000 0.000000 0.000000 88.133200 -5.546500 37.894900 -16.440700 26.114600 -3.837900 0.000000 0.000000 3.605200 7.125000 0.000000 0.000000 
-29.270900 17.026300 0.761700 -21.405900 87.049500 -25.869800 -10.158800 5.428000 10.878900 0.068400 1.686700 4.640700 0.337500 9.150100 -17.863400 0.687400 -5.300400 -14.767400 18.012900 -8.479600 9.044100 -0.165600 -2.622100 7.228300 -1.079400 0.550200 -19.468100 -0.045100 -1.371000 3.770300 0.458100 2.778400 -0.161800 0.604900 1.407600 -5.929900 -1.621300 0.819300 19.717300 -1.056200 0.507300 9.562700 -87.229300 3.904800 35.864700 13.276700 -21.691400 -2.554700 0.000000 0.000000 11.994900 -7.125000 0.000000 0.000000 88.136300 -5.606000 37.868000 -16.491900 26.183100 -3.860500 0.000000 0.000000 3.717400 7.125000 0.000000 0.000000 
